<mxfile host="app.diagrams.net" agent="Mozilla/5.0 (Windows NT 10.0; Win64; x64) AppleWebKit/537.36 (KHTML, like Gecko) Chrome/132.0.0.0 Safari/537.36 Edg/132.0.0.0" version="26.0.11">
  <diagram name="Page-1" id="dHEjQKyAx2glMH0PPZ7r">
    <mxGraphModel dx="1121" dy="689" grid="1" gridSize="10" guides="1" tooltips="1" connect="1" arrows="1" fold="1" page="1" pageScale="1" pageWidth="2000" pageHeight="2000" math="1" shadow="0">
      <root>
        <mxCell id="0" />
        <mxCell id="1" parent="0" />
        <mxCell id="L2Xz_SyH8n0p4nSWYo8K-233" value="&lt;font style=&quot;color: rgb(255, 255, 255);&quot;&gt;PINN&lt;/font&gt;" style="rounded=1;whiteSpace=wrap;html=1;strokeWidth=2;fillColor=#000000;" parent="1" vertex="1">
          <mxGeometry x="195" y="85.00999999999999" width="175" height="87.5" as="geometry" />
        </mxCell>
        <mxCell id="L2Xz_SyH8n0p4nSWYo8K-239" value="" style="endArrow=classic;html=1;rounded=0;exitX=1;exitY=0.5;exitDx=0;exitDy=0;entryX=0;entryY=0.5;entryDx=0;entryDy=0;strokeWidth=1;" parent="1" source="klvH-5ZAmwFgYcy9bd1n-2" target="L2Xz_SyH8n0p4nSWYo8K-233" edge="1">
          <mxGeometry width="50" height="50" relative="1" as="geometry">
            <mxPoint x="105.67000000000007" y="128.75499999999997" as="sourcePoint" />
            <mxPoint x="185" y="244.37999999999997" as="targetPoint" />
          </mxGeometry>
        </mxCell>
        <mxCell id="L2Xz_SyH8n0p4nSWYo8K-240" value="`\tilde{\kappa}(t_n)`" style="text;html=1;align=center;verticalAlign=middle;whiteSpace=wrap;rounded=0;" parent="1" vertex="1">
          <mxGeometry x="440" y="113.75999999999999" width="40" height="30" as="geometry" />
        </mxCell>
        <mxCell id="L2Xz_SyH8n0p4nSWYo8K-247" value="" style="endArrow=classic;html=1;rounded=0;exitX=1;exitY=0.5;exitDx=0;exitDy=0;entryX=0;entryY=0.5;entryDx=0;entryDy=0;" parent="1" source="L2Xz_SyH8n0p4nSWYo8K-233" target="L2Xz_SyH8n0p4nSWYo8K-240" edge="1">
          <mxGeometry width="50" height="50" relative="1" as="geometry">
            <mxPoint x="275" y="324.38" as="sourcePoint" />
            <mxPoint x="345" y="274.38" as="targetPoint" />
          </mxGeometry>
        </mxCell>
        <mxCell id="klvH-5ZAmwFgYcy9bd1n-1" value="`u(t_n)`" style="text;html=1;align=center;verticalAlign=middle;whiteSpace=wrap;rounded=0;" parent="1" vertex="1">
          <mxGeometry x="40" y="164.57" width="60" height="50" as="geometry" />
        </mxCell>
        <mxCell id="klvH-5ZAmwFgYcy9bd1n-2" value="$$ u(t_{n-1}) $$&lt;div&gt;$$ u(t_{n-2}) $$&lt;/div&gt;&lt;div&gt;$$ \dots $$&lt;/div&gt;" style="text;html=1;align=center;verticalAlign=middle;whiteSpace=wrap;rounded=0;" parent="1" vertex="1">
          <mxGeometry x="40" y="42.94" width="60" height="90" as="geometry" />
        </mxCell>
        <mxCell id="klvH-5ZAmwFgYcy9bd1n-3" value="" style="endArrow=classic;html=1;rounded=0;exitX=1;exitY=0.5;exitDx=0;exitDy=0;entryX=0;entryY=0.5;entryDx=0;entryDy=0;" parent="1" source="klvH-5ZAmwFgYcy9bd1n-1" target="L2Xz_SyH8n0p4nSWYo8K-233" edge="1">
          <mxGeometry width="50" height="50" relative="1" as="geometry">
            <mxPoint x="90" y="332.35" as="sourcePoint" />
            <mxPoint x="140" y="282.35" as="targetPoint" />
          </mxGeometry>
        </mxCell>
      </root>
    </mxGraphModel>
  </diagram>
</mxfile>
